<svg width="2059" height="772" viewBox="0 0 2059 772" fill="none" xmlns="http://www.w3.org/2000/svg">
<circle cx="188" cy="188" r="188" fill="#FFF4C6"/>
<circle cx="584" cy="188" r="188" fill="#FFD11A"/>
<circle cx="198" cy="584" r="188" fill="#FFD11A"/>
<circle cx="594" cy="584" r="188" fill="#FFD11A"/>
<path d="M940.227 531V240.091H1041.93C1062.2 240.091 1078.91 243.595 1092.07 250.602C1105.24 257.515 1115.04 266.843 1121.48 278.585C1127.92 290.233 1131.14 303.159 1131.14 317.364C1131.14 329.864 1128.91 340.186 1124.46 348.33C1120.1 356.473 1114.33 362.913 1107.13 367.648C1100.03 372.383 1092.31 375.886 1083.98 378.159V381C1092.88 381.568 1101.83 384.693 1110.82 390.375C1119.82 396.057 1127.35 404.201 1133.41 414.807C1139.47 425.413 1142.5 438.386 1142.5 453.727C1142.5 468.311 1139.19 481.426 1132.56 493.074C1125.93 504.722 1115.46 513.955 1101.16 520.773C1086.87 527.591 1068.26 531 1045.34 531H940.227ZM975.455 499.75H1045.34C1068.35 499.75 1084.69 495.299 1094.35 486.398C1104.1 477.402 1108.98 466.511 1108.98 453.727C1108.98 443.879 1106.47 434.788 1101.45 426.455C1096.43 418.027 1089.28 411.303 1080 406.284C1070.72 401.17 1059.73 398.614 1047.05 398.614H975.455V499.75ZM975.455 367.932H1040.8C1051.4 367.932 1060.97 365.848 1069.49 361.682C1078.11 357.515 1084.92 351.644 1089.94 344.068C1095.06 336.492 1097.61 327.591 1097.61 317.364C1097.61 304.58 1093.16 293.737 1084.26 284.835C1075.36 275.839 1061.25 271.341 1041.93 271.341H975.455V367.932ZM1333.34 441.795V312.818H1366.86V531H1333.34V494.068H1331.07C1325.95 505.148 1318 514.57 1307.2 522.335C1296.41 530.006 1282.77 533.841 1266.29 533.841C1252.66 533.841 1240.54 530.858 1229.93 524.892C1219.32 518.831 1210.99 509.741 1204.93 497.619C1198.87 485.403 1195.84 470.015 1195.84 451.455V312.818H1229.36V449.182C1229.36 465.091 1233.81 477.78 1242.71 487.25C1251.71 496.72 1263.17 501.455 1277.09 501.455C1285.42 501.455 1293.9 499.324 1302.51 495.062C1311.23 490.801 1318.52 484.267 1324.39 475.46C1330.36 466.653 1333.34 455.432 1333.34 441.795ZM1428.26 531V312.818H1461.78V531H1428.26ZM1445.31 276.455C1438.77 276.455 1433.14 274.229 1428.4 269.778C1423.76 265.328 1421.44 259.977 1421.44 253.727C1421.44 247.477 1423.76 242.127 1428.4 237.676C1433.14 233.225 1438.77 231 1445.31 231C1451.84 231 1457.43 233.225 1462.07 237.676C1466.8 242.127 1469.17 247.477 1469.17 253.727C1469.17 259.977 1466.8 265.328 1462.07 269.778C1457.43 274.229 1451.84 276.455 1445.31 276.455ZM1556.7 240.091V531H1523.18V240.091H1556.7ZM1700.49 535.545C1682.31 535.545 1666.26 530.953 1652.34 521.767C1638.42 512.487 1627.53 499.419 1619.67 482.562C1611.81 465.612 1607.88 445.583 1607.88 422.477C1607.88 399.561 1611.81 379.674 1619.67 362.818C1627.53 345.962 1638.46 332.941 1652.48 323.756C1666.49 314.57 1682.69 309.977 1701.06 309.977C1715.26 309.977 1726.48 312.345 1734.72 317.08C1743.06 321.72 1749.4 327.023 1753.76 332.989C1758.21 338.86 1761.66 343.689 1764.13 347.477H1766.97V240.091H1800.49V531H1768.1V497.477H1764.13C1761.66 501.455 1758.16 506.473 1753.62 512.534C1749.07 518.5 1742.58 523.85 1734.15 528.585C1725.73 533.225 1714.51 535.545 1700.49 535.545ZM1705.04 505.432C1718.48 505.432 1729.85 501.928 1739.13 494.92C1748.41 487.818 1755.46 478.017 1760.29 465.517C1765.12 452.922 1767.54 438.386 1767.54 421.909C1767.54 405.621 1765.17 391.369 1760.43 379.153C1755.7 366.843 1748.69 357.278 1739.41 350.46C1730.13 343.547 1718.67 340.091 1705.04 340.091C1690.83 340.091 1678.99 343.737 1669.52 351.028C1660.15 358.225 1653.09 368.027 1648.36 380.432C1643.72 392.742 1641.4 406.568 1641.4 421.909C1641.4 437.439 1643.77 451.549 1648.5 464.239C1653.33 476.833 1660.43 486.871 1669.81 494.352C1679.28 501.739 1691.02 505.432 1705.04 505.432ZM1888.13 612.818C1882.45 612.818 1877.38 612.345 1872.93 611.398C1868.48 610.545 1865.4 609.693 1863.7 608.841L1872.22 579.295C1880.37 581.379 1887.56 582.136 1893.81 581.568C1900.06 581 1905.6 578.206 1910.43 573.188C1915.36 568.263 1919.86 560.261 1923.93 549.182L1930.18 532.136L1849.5 312.818H1885.86L1946.09 486.682H1948.36L2008.59 312.818H2044.95L1952.34 562.818C1948.17 574.087 1943.01 583.415 1936.85 590.801C1930.7 598.282 1923.55 603.822 1915.4 607.42C1907.36 611.019 1898.26 612.818 1888.13 612.818Z" fill="white"/>
</svg>
