<svg width="2509" height="772" viewBox="0 0 2509 772" fill="none" xmlns="http://www.w3.org/2000/svg">
<circle cx="188" cy="188" r="188" fill="#FFF4C6"/>
<circle cx="584" cy="188" r="188" fill="#FFD11A"/>
<circle cx="198" cy="584" r="188" fill="#FFD11A"/>
<circle cx="594" cy="584" r="188" fill="#FFD11A"/>
<path d="M915.227 531V498.614H923.75C935.871 498.614 945.294 494.731 952.017 486.966C958.741 479.201 963.57 466.653 966.506 449.324C969.536 431.994 971.572 409.03 972.614 380.432L977.727 240.091H1155V531H1119.77V271.341H1011.25L1006.7 387.25C1005.57 417.742 1002.77 443.689 998.324 465.091C993.873 486.492 986.061 502.828 974.886 514.097C963.712 525.366 947.424 531 926.023 531H915.227ZM1309.47 535.545C1289.78 535.545 1272.5 530.858 1257.63 521.483C1242.86 512.108 1231.3 498.992 1222.97 482.136C1214.73 465.28 1210.61 445.583 1210.61 423.045C1210.61 400.318 1214.73 380.479 1222.97 363.528C1231.3 346.578 1242.86 333.415 1257.63 324.04C1272.5 314.665 1289.78 309.977 1309.47 309.977C1329.17 309.977 1346.41 314.665 1361.18 324.04C1376.05 333.415 1387.6 346.578 1395.84 363.528C1404.17 380.479 1408.34 400.318 1408.34 423.045C1408.34 445.583 1404.17 465.28 1395.84 482.136C1387.6 498.992 1376.05 512.108 1361.18 521.483C1346.41 530.858 1329.17 535.545 1309.47 535.545ZM1309.47 505.432C1324.44 505.432 1336.75 501.597 1346.41 493.926C1356.07 486.256 1363.21 476.17 1367.86 463.67C1372.5 451.17 1374.82 437.629 1374.82 423.045C1374.82 408.462 1372.5 394.873 1367.86 382.278C1363.21 369.684 1356.07 359.504 1346.41 351.739C1336.75 343.973 1324.44 340.091 1309.47 340.091C1294.51 340.091 1282.2 343.973 1272.54 351.739C1262.88 359.504 1255.73 369.684 1251.09 382.278C1246.45 394.873 1244.13 408.462 1244.13 423.045C1244.13 437.629 1246.45 451.17 1251.09 463.67C1255.73 476.17 1262.88 486.256 1272.54 493.926C1282.2 501.597 1294.51 505.432 1309.47 505.432ZM1594.17 312.818V344.068H1493.03V531H1459.51V312.818H1594.17ZM1720.41 535.545C1700.71 535.545 1683.43 530.858 1668.57 521.483C1653.79 512.108 1642.24 498.992 1633.91 482.136C1625.67 465.28 1621.55 445.583 1621.55 423.045C1621.55 400.318 1625.67 380.479 1633.91 363.528C1642.24 346.578 1653.79 333.415 1668.57 324.04C1683.43 314.665 1700.71 309.977 1720.41 309.977C1740.11 309.977 1757.34 314.665 1772.12 324.04C1786.98 333.415 1798.54 346.578 1806.78 363.528C1815.11 380.479 1819.28 400.318 1819.28 423.045C1819.28 445.583 1815.11 465.28 1806.78 482.136C1798.54 498.992 1786.98 512.108 1772.12 521.483C1757.34 530.858 1740.11 535.545 1720.41 535.545ZM1720.41 505.432C1735.37 505.432 1747.68 501.597 1757.34 493.926C1767 486.256 1774.15 476.17 1778.79 463.67C1783.43 451.17 1785.75 437.629 1785.75 423.045C1785.75 408.462 1783.43 394.873 1778.79 382.278C1774.15 369.684 1767 359.504 1757.34 351.739C1747.68 343.973 1735.37 340.091 1720.41 340.091C1705.45 340.091 1693.14 343.973 1683.48 351.739C1673.82 359.504 1666.67 369.684 1662.03 382.278C1657.39 394.873 1655.07 408.462 1655.07 423.045C1655.07 437.629 1657.39 451.17 1662.03 463.67C1666.67 476.17 1673.82 486.256 1683.48 493.926C1693.14 501.597 1705.45 505.432 1720.41 505.432ZM1841.93 344.068V312.818H2019.2V344.068H1947.61V531H1914.09V344.068H1841.93ZM2101.63 481.568L2206.74 312.818H2245.38V531H2211.85V362.25L2107.31 531H2068.1V312.818H2101.63V481.568ZM2306.78 531V312.818H2478.37V531H2444.84V344.068H2340.3V531H2306.78Z" fill="white"/>
</svg>
